<svg height="480pt" viewBox="0 0 479 480" width="480pt" xmlns="http://www.w3.org/2000/svg"><path d="m56.492188 216c-2.335938.003906-4.554688 1.023438-6.070313 2.800781l-48 56c-2.5625 2.992188-2.5625 7.40625 0 10.398438l48 56c1.515625 1.777343 3.734375 2.796875 6.070313 2.800781h152v16h-56v16h56v104h16v-104h32v104h16v-104h56v-16h-56v-16h88c4.417968 0 8-3.582031 8-8v-112c0-4.417969-3.582032-8-8-8h-88v-32h152c2.335937-.003906 4.554687-1.023438 6.074218-2.800781l48-56c2.558594-2.992188 2.558594-7.40625 0-10.398438l-48-56c-1.519531-1.777343-3.738281-2.796875-6.074218-2.800781h-152v-24c0-17.671875-14.328126-32-32-32-17.671876 0-32 14.328125-32 32v24h-72c-4.417969 0-8 3.582031-8 8v112c0 4.417969 3.582031 8 8 8h72v32zm200 144h-32v-16h32zm96-32h-292.320313l-41.144531-48 41.144531-48h292.320313zm-128-296c0-8.835938 7.164062-16 16-16 8.835937 0 16 7.164062 16 16v24h-32zm-80 40h276.320312l41.144531 48-41.144531 48h-276.320312zm80 112h32v32h-32zm0 0"/><path d="m120.492188 360h16v16h-16zm0 0"/><path d="m296.492188 24h120v16h-120zm0 0"/><path d="m160.492188 88h16v16h-16zm0 0"/><path d="m160.492188 136h16v16h-16zm0 0"/><path d="m400.492188 88h16v16h-16zm0 0"/><path d="m400.492188 136h16v16h-16zm0 0"/><path d="m64.492188 248h16v16h-16zm0 0"/><path d="m64.492188 296h16v16h-16zm0 0"/><path d="m320.492188 248h16v16h-16zm0 0"/><path d="m320.492188 296h16v16h-16zm0 0"/></svg>