<svg height="50" viewBox="0 0 464 464" width="50" xmlns="http://www.w3.org/2000/svg"><path d="m112 96h240v320h-240zm0 0" fill="#faeed8"/><path d="m144 256v-160h-32v320h240v-32h-80c-70.691406 0-128-57.308594-128-128zm0 0" fill="#e8d4b8"/><path d="m144 216h96v96h-96zm0 0" fill="#70dda8"/><path d="m112 96h240v80h-240zm0 0" fill="#fd412d"/><path d="m112 96h32v80h-32zm0 0" fill="#d6332b"/><path d="m208 264c0 8.835938-7.164062 16-16 16s-16-7.164062-16-16 7.164062-16 16-16 16 7.164062 16 16zm0 0" fill="#fd412d"/><path d="m192 280c8.835938 0 16 7.164062 16 16v16h-32v-16c0-8.835938 7.164062-16 16-16zm0 0" fill="#fd412d"/><path d="m272 336h48v48h-48zm0 0" fill="#70dda8"/><g fill="#40bf7c"><path d="m328 216h-32c-4.417969 0-8-3.582031-8-8s3.582031-8 8-8h32c4.417969 0 8 3.582031 8 8s-3.582031 8-8 8zm0 0"/><path d="m328 248h-56c-4.417969 0-8-3.582031-8-8s3.582031-8 8-8h56c4.417969 0 8 3.582031 8 8s-3.582031 8-8 8zm0 0"/><path d="m320 280h-48c-4.417969 0-8-3.582031-8-8s3.582031-8 8-8h48c4.417969 0 8 3.582031 8 8s-3.582031 8-8 8zm0 0"/><path d="m296 312h-24c-4.417969 0-8-3.582031-8-8s3.582031-8 8-8h24c4.417969 0 8 3.582031 8 8s-3.582031 8-8 8zm0 0"/><path d="m240 352h-72c-4.417969 0-8-3.582031-8-8s3.582031-8 8-8h72c4.417969 0 8 3.582031 8 8s-3.582031 8-8 8zm0 0"/></g><path d="m168 384h-24c-4.417969 0-8-3.582031-8-8s3.582031-8 8-8h24c4.417969 0 8 3.582031 8 8s-3.582031 8-8 8zm0 0" fill="#2b8955"/><path d="m240 384h-40c-4.417969 0-8-3.582031-8-8s3.582031-8 8-8h40c4.417969 0 8 3.582031 8 8s-3.582031 8-8 8zm0 0" fill="#40bf7c"/><path d="m240 160c-2.125.011719-4.171875-.824219-5.679688-2.320312l-18.320312-18.320313v12.640625c.019531 3.25-1.929688 6.1875-4.933594 7.433594-3 1.246094-6.457031.554687-8.746094-1.753906l-18.320312-18.320313v12.640625c.019531 3.25-1.929688 6.1875-4.933594 7.433594-3 1.246094-6.457031.554687-8.746094-1.753906l-18.320312-18.320313v12.640625c0 4.417969-3.582031 8-8 8s-8-3.582031-8-8v-32c.015625-3.230469 1.972656-6.132812 4.960938-7.359375 2.992187-1.234375 6.4375-.539063 8.71875 1.757813l18.320312 18.320312v-12.71875c.015625-3.230469 1.972656-6.132812 4.960938-7.359375 2.992187-1.234375 6.4375-.539063 8.71875 1.757813l18.320312 18.320312v-12.71875c.015625-3.230469 1.972656-6.132812 4.960938-7.359375 2.992187-1.234375 6.4375-.539063 8.71875 1.757813l18.320312 18.320312v-12.71875c0-4.417969 3.582031-8 8-8s8 3.582031 8 8v32c.015625 3.257812-1.945312 6.203125-4.960938 7.441406-.964843.382813-2 .570313-3.039062.558594zm0 0" fill="#40bf7c"/><path d="m312 160c-2.125.011719-4.171875-.824219-5.679688-2.320312l-18.320312-18.320313v12.640625c0 4.417969-3.582031 8-8 8s-8-3.582031-8-8v-32c.015625-3.230469 1.972656-6.132812 4.960938-7.359375 2.992187-1.234375 6.4375-.539063 8.71875 1.757813l18.320312 18.320312v-12.71875c0-4.417969 3.582031-8 8-8s8 3.582031 8 8v32c.015625 3.257812-1.945312 6.203125-4.960938 7.441406-.964843.382813-2 .570313-3.039062.558594zm0 0" fill="#40bf7c"/><path d="m144 312h13.039062c-8.558593-17.425781-13.019531-36.582031-13.039062-56zm0 0" fill="#40bf7c"/><path d="m160 344c0 4.417969 3.582031 8 8 8h19.519531c-5.578125-4.871094-10.71875-10.226562-15.359375-16h-4.160156c-4.417969 0-8 3.582031-8 8zm0 0" fill="#2b8955"/><path d="m192 376c0 4.417969 3.582031 8 8 8h40c2.257812-.003906 4.40625-.964844 5.921875-2.640625-12.5625-2.59375-24.648437-7.097656-35.84375-13.359375h-10.078125c-4.417969 0-8 3.582031-8 8zm0 0" fill="#2b8955"/><path d="m140.960938 112.640625c-2.988282 1.226563-4.945313 4.128906-4.960938 7.359375v32c0 4.417969 3.582031 8 8 8v-48c-1.046875.011719-2.078125.230469-3.039062.640625zm0 0" fill="#2b8955"/><path d="m112 176v-80h56v-40h65.28125l-32.402344-56-200.878906 116 112 194zm0 0" fill="#faa108"/><path d="m144 80h-56v188.480469l24 41.519531v-214h56v-40h65.28125l-9.28125-16h-80zm0 0" fill="#d6850d"/><path d="m168 56v40h184v280h48v-320zm0 0" fill="#70dda8"/><path d="m368 328v-248h-160c-13.253906 0-24-10.746094-24-24h-16v40h184v280h48v-16c-17.671875 0-32-14.328125-32-32zm0 0" fill="#40bf7c"/><path d="m400 137.761719v238.238281h-48v40h-150l179.199219 48 82.800781-309.039062zm0 0" fill="#fd412d"/><path d="m416 334.078125v-192l-16-4.316406v238.238281h-48v40h-150l89.601562 24h76.398438v-40h30.320312zm0 0" fill="#d6332b"/></svg>