<svg height="50px" viewBox="0 0 384 384" width="50px" xmlns="http://www.w3.org/2000/svg">
  <path d="m176 272c-2.121094 0-4.15625-.84375-5.65625-2.34375l-32-32c-3.03125-3.140625-2.988281-8.128906.097656-11.214844 3.085938-3.085937 8.074219-3.128906 11.214844-.097656l26.34375 26.34375 58.34375-58.34375c3.140625-3.03125 8.128906-2.988281 11.214844.097656 3.085937 3.085938 3.128906 8.074219.097656 11.214844l-64 64c-1.5 1.5-3.535156 2.34375-5.65625 2.34375zm0 0" fill="#84e370" />
  <path d="m268.222656 102.792969c11.960938-9.40625 19.191406-23.589844 19.777344-38.792969 0-35.34375-42.984375-64-96-64s-96 28.65625-96 64c.585938 15.203125 7.816406 29.386719 19.777344 38.792969l-11.777344 41.207031 38.105469-25.398438c32.082031 12.53125 67.707031 12.53125 99.789062 0l38.105469 25.398438zm0 0" fill="#84e370" />
  <path d="m224 48h-64c-4.417969 0-8-3.582031-8-8s3.582031-8 8-8h64c4.417969 0 8 3.582031 8 8s-3.582031 8-8 8zm0 0" fill="#30c902" />
  <path d="m232 96h-80c-4.417969 0-8-3.582031-8-8s3.582031-8 8-8h80c4.417969 0 8 3.582031 8 8s-3.582031 8-8 8zm0 0" fill="#30c902" />
  <path d="m232 72h-80c-4.417969 0-8-3.582031-8-8s3.582031-8 8-8h80c4.417969 0 8 3.582031 8 8s-3.582031 8-8 8zm0 0" fill="#30c902" />
  <g fill="#b757d0">
    <path d="m288 288h48c26.507812 0 48 21.492188 48 48v48h-144v-48c0-26.507812 21.492188-48 48-48zm0 0" />
    <path d="m352 200c0 22.089844-17.910156 56-40 56s-40-33.910156-40-56 17.910156-40 40-40 40 17.910156 40 40zm0 0" />
    <path d="m312 288v96h-72v-48c0-26.507812 21.492188-48 48-48zm0 0" />
    <path d="m312 160v96c-22.078125 0-40-33.921875-40-56 0-22.089844 17.910156-40 40-40zm0 0" />
  </g>
  <path d="m352 200c0 22.078125-17.921875 56-40 56v-96c22.089844 0 40 17.910156 40 40zm0 0" fill="#9331b2" />
  <path d="m384 336v48h-72v-96h24c26.507812 0 48 21.492188 48 48zm0 0" fill="#9331b2" />
  <path d="m48 288h48c26.507812 0 48 21.492188 48 48v48h-144v-48c0-26.507812 21.492188-48 48-48zm0 0" fill="#b757d0" />
  <path d="m112 200c0 22.089844-17.910156 56-40 56s-40-33.910156-40-56 17.910156-40 40-40 40 17.910156 40 40zm0 0" fill="#b757d0" />
  <path d="m72 288v96h-72v-48c0-26.507812 21.492188-48 48-48zm0 0" fill="#fdd501" />
  <path d="m72 160v96c-22.078125 0-40-33.921875-40-56 0-22.089844 17.910156-40 40-40zm0 0" fill="#fdd501" />
  <path d="m112 200c0 22.078125-17.921875 56-40 56v-96c22.089844 0 40 17.910156 40 40zm0 0" fill="#ecb400" />
  <path d="m144 336v48h-72v-96h24c26.507812 0 48 21.492188 48 48zm0 0" fill="#ecb400" />
</svg>
