<svg height="50px" viewBox="0 -81 512.00071 512" width="50px" xmlns="http://www.w3.org/2000/svg"><path d="m370.613281 118.652344h-253.726562c-8.351563 0-15.125 6.769531-15.125 15.121094v166.796874c0 8.351563 6.773437 15.121094 15.125 15.121094h253.726562c8.351563 0 15.125-6.769531 15.125-15.121094v-166.796874c0-8.351563-6.773437-15.121094-15.125-15.121094zm0 0" fill="#0053bf"/><path d="m370.613281 118.652344h-126.863281v197.039062h126.867188c8.351562 0 15.121093-6.769531 15.121093-15.121094v-166.796874c0-8.351563-6.773437-15.121094-15.125-15.121094zm0 0" fill="#1b3b6b"/><path d="m479.34375 120.351562-228.628906-118.652343c-4.367188-2.265625-9.5625-2.265625-13.929688 0l-228.628906 118.652343c-5.203125 2.699219-8.375 8.160157-8.1445312 14.015626.2304692 5.859374 3.8242192 11.050781 9.2226562 13.335937l228.628906 96.65625c1.878907.796875 3.882813 1.191406 5.886719 1.191406s4.007812-.398437 5.886719-1.191406l228.628906-96.65625c5.398437-2.285156 8.992187-7.476563 9.222656-13.335937.230469-5.855469-2.941406-11.316407-8.144531-14.015626zm0 0" fill="#3d7ed9"/><path d="m249.636719 244.359375 228.628906-96.65625c5.398437-2.28125 8.992187-7.476563 9.222656-13.332031.230469-5.859375-2.941406-11.320313-8.144531-14.019532l-228.628906-118.652343c-2.183594-1.132813-4.574219-1.699219-6.964844-1.699219v245.554688c2.003906 0 4.007812-.398438 5.886719-1.195313zm0 0" fill="#0053bf"/><path d="m472.378906 263.050781c-8.351562 0-15.121094-6.769531-15.121094-15.121093v-99.03125h-213.507812c-8.351562 0-15.121094-6.773438-15.121094-15.125 0-8.351563 6.769532-15.121094 15.121094-15.121094h228.628906c8.351563 0 15.121094 6.769531 15.121094 15.121094v114.15625c0 8.351562-6.769531 15.121093-15.121094 15.121093zm0 0" fill="#1b3b6b"/><path d="m457.257812 148.894531v99.035157c0 8.351562 6.769532 15.121093 15.121094 15.121093 8.351563 0 15.121094-6.769531 15.121094-15.121093v-114.15625c0-8.351563-6.769531-15.121094-15.121094-15.121094h-228.628906v30.242187zm0 0" fill="#23272b"/><path d="m453.636719 349.515625c-2.273438 0-4.582031-.511719-6.753907-1.597656-7.46875-3.734375-10.496093-12.820313-6.761718-20.289063l18.734375-37.460937c2.558593-5.125 7.796875-8.359375 13.523437-8.359375 5.730469 0 10.964844 3.234375 13.527344 8.359375l18.730469 37.460937c3.734375 7.46875.707031 16.550782-6.761719 20.289063-7.46875 3.734375-16.554688.707031-20.289062-6.761719l-5.207032-10.414062-5.203125 10.414062c-2.652343 5.296875-7.992187 8.359375-13.539062 8.359375zm0 0" fill="#23272b"/><path d="m472.378906 312.050781c-21.847656 0-39.621094-17.773437-39.621094-39.621093 0-21.847657 17.773438-39.621094 39.621094-39.621094s39.621094 17.773437 39.621094 39.621094c0 21.847656-17.773438 39.621093-39.621094 39.621093zm0 0" fill="#ffda45"/><path d="m472.378906 232.808594v79.242187c21.847656 0 39.621094-17.773437 39.621094-39.621093 0-21.847657-17.773438-39.621094-39.621094-39.621094zm0 0" fill="#ffa426"/></svg>