<svg height="50" viewBox="-6 0 511 511.99497" width="50" xmlns="http://www.w3.org/2000/svg"><path d="m500.46875 10.445312v491.121094c0 5.753906-4.671875 10.429688-10.429688 10.429688h-340.160156v-511.980469h340.160156c5.757813 0 10.429688 4.675781 10.429688 10.429687zm0 0" fill="#fff5f4"/><path d="m480.097656 503.652344c-4.941406 5.152344-11.753906 8.34375-19.253906 8.34375h-310.964844v-511.980469h60.242188c65.292968 13.519531 117.464844 71.644531 120.417968 140.609375 3.464844 81.066406-59.429687 149.59375-140.496093 153.054688h100.925781c29.046875 0 38.148438 40.375 10.910156 52.359374h165.359375c24.097657 0 36.46875 30.648438 19.253907 48.511719-4.933594 5.152344-11.753907 8.355469-19.253907 8.355469h-26.398437c20.921875 10.921875 20.070312 42.695312-1.480469 52.304688h21.484375c24.113281 0 36.449219 30.601562 19.253906 48.441406zm0 0" fill="#ebe0da"/><path d="m294.183594 140.636719c-3.464844-81.0625-71.988282-143.96875-153.050782-140.503907-81.0625 3.464844-143.964843 71.988282-140.5 153.050782 3.464844 81.0625 71.984376 143.964844 153.046876 140.5s143.96875-71.984375 140.503906-153.046875zm0 0" fill="#fed22b"/><path d="m251.65625 162.070312c-6.6875 46.0625-42.429688 80.878907-85.945312 88.5625-7.144532 1.273438-14.5 1.804688-21.964844 1.535157-.011719.011719-.011719 0-.011719 0-3.785156-.136719-7.605469-.480469-11.433594-1.03125-29.109375-4.226563-55.308593-20.601563-71.882812-44.914063-14.882813-21.832031-20.984375-48.269531-17.1875-74.441406 4.046875-27.835938 18.6875-52.433594 41.238281-69.257812 17.035156-12.722657 37.277344-20.046876 58.804688-20.828126 7.3125-.269531 14.761718.210938 22.28125 1.492188 27.921874 4.882812 52.914062 20.953125 68.921874 44.441406 14.882813 21.832032 20.984376 48.273438 17.179688 74.441406zm0 0" fill="#ffe5a0"/><path d="m183.578125 175.054688c0-46.179688-54.886719-32.597657-54.886719-58.894532 0-13.046875 11.484375-15.785156 21.125-15.785156 9.207032 0 14.21875 2.582031 17.878906 4.46875 2.027344 1.046875 3.628907 1.871094 5.308594 1.871094 4.972656 0 7.570313-6.015625 7.570313-9.238282 0-7.863281-13.886719-11.488281-25.34375-12.363281v-18.882812c0-4.320313-3.503907-7.824219-7.824219-7.824219s-7.820312 3.503906-7.820312 7.824219v19.558593.035157c-11.980469 2.179687-28.039063 9.273437-28.039063 31.671875 0 41.621094 54.890625 27.003906 54.890625 58.894531 0 12.332031-7.683594 19.121094-21.628906 19.121094-12.449219 0-18.058594-5.507813-22.152344-9.527344-2.265625-2.226563-4.058594-3.984375-6.375-3.984375-4.167969 0-7.738281 5.078125-7.738281 9.238281 0 7.386719 12.164062 18.203125 31.042969 20.121094v16.222656c0 4.320313 3.5 7.820313 7.820312 7.820313s7.824219-3.5 7.824219-7.820313v-16.785156c17.929687-3.3125 28.347656-16.148437 28.347656-35.742187zm0 0" fill="#e38803"/><path d="m312.066406 66.6875h155.933594c4.320312 0 7.820312-3.503906 7.820312-7.824219 0-4.320312-3.5-7.820312-7.820312-7.820312h-155.933594c-4.320312 0-7.820312 3.5-7.820312 7.820312 0 4.320313 3.5 7.824219 7.820312 7.824219zm0 0" fill="#63a6fd"/><path d="m468 109.449219h-137.679688c-4.320312 0-7.824218 3.503906-7.824218 7.824219 0 4.320312 3.503906 7.824218 7.824218 7.824218h137.679688c4.320312 0 7.820312-3.503906 7.820312-7.824218 0-4.320313-3.5-7.824219-7.820312-7.824219zm0 0" fill="#63a6fd"/><path d="m459.007812 163.796875c-1.585937-4.5625-6.894531-6.609375-11.132812-4.296875l-46.472656 25.347656c-3.792969 2.070313-5.191406 6.820313-3.121094 10.613282 2.070312 3.792968 6.820312 5.191406 10.613281 3.121093l28.132813-15.34375-37.066406 88.566407-48.773438-34.261719c-2.78125-1.949219-6.5-1.886719-9.210938.15625l-39.753906 30.011719c-3.449218 2.601562-4.132812 7.507812-1.527344 10.957031 2.601563 3.445312 7.507813 4.132812 10.953126 1.527343l35.207031-26.574218 52.066406 36.578125c4.070313 2.855469 9.777344 1.246093 11.714844-3.382813l40.738281-97.335937 9.234375 26.554687c1.417969 4.082032 5.875 6.238282 9.957031 4.820313 4.082032-1.421875 6.238282-5.878907 4.820313-9.957031zm0 0" fill="#63a6fd"/><path d="m143.730469 252.167969c-3.789063-.136719-7.605469-.480469-11.433594-1.03125-29.109375-4.226563-55.3125-20.601563-71.882813-44.914063-14.886718-21.832031-20.988281-48.269531-17.191406-74.441406 4.046875-27.835938 18.691406-52.433594 41.242188-69.257812 17.03125-12.722657 37.277344-20.046876 58.804687-20.828126-61.140625 30.644532-85.496093 110.925782-44.191406 171.503907 11.390625 16.71875 26.859375 30.070312 44.652344 38.96875zm0 0" fill="#ffdd81"/><g fill="#fdc202"><path d="m313.902344 484.730469c0 7.5-3.066406 14.308593-8.007813 19.253906-4.945312 4.945313-11.757812 8.011719-19.253906 8.011719h-209.453125c-14.996094 0-27.261719-12.265625-27.261719-27.265625 0-14.984375 12.257813-27.265625 27.261719-27.265625h209.453125c13.339844 0 24.507813 9.699218 26.8125 22.394531.304687 1.574219.449219 3.210937.449219 4.871094zm0 0"/><path d="m281.871094 430.199219c0 7.492187-3.066406 14.3125-8.007813 19.257812-4.933593 4.941407-11.757812 8.007813-19.253906 8.007813h-209.460937c-14.988282 0-27.265626-12.277344-27.265626-27.265625 0-14.984375 12.265626-27.261719 27.265626-27.261719h209.460937c13.339844 0 24.519531 9.699219 26.824219 22.402344.292968 1.574218.4375 3.203125.4375 4.859375zm0 0"/><path d="m320.300781 375.667969c0 7.5-3.066406 14.3125-8.011719 19.257812-4.933593 4.941407-11.753906 8.007813-19.253906 8.007813h-209.449218c-15 0-27.265626-12.277344-27.265626-27.265625 0-7.496094 3.066407-14.320313 8.011719-19.253907 4.945313-4.941406 11.753907-8.007812 19.253907-8.007812h209.449218c13.339844 0 24.523438 9.710938 26.828125 22.414062.289063 1.574219.4375 3.191407.4375 4.847657zm0 0"/><path d="m281.875 321.007812c0 7.523438-3.066406 14.378907-8.011719 19.347657-4.933593 4.96875-11.753906 8.046875-19.253906 8.046875h-209.457031c-14.988282 0-27.265625-12.335938-27.265625-27.394532 0-15.058593 12.261719-27.398437 27.265625-27.398437h209.457031c13.339844 0 24.523437 9.746094 26.828125 22.515625.292969 1.578125.4375 3.214844.4375 4.882812zm0 0"/><path d="m451.75 484.730469c0 6.664062-2.421875 12.777343-6.425781 17.523437-.5.605469-1.03125 1.179688-1.585938 1.730469-4.941406 4.945313-11.753906 8.011719-19.253906 8.011719h-209.449219c-15 0-27.265625-12.265625-27.265625-27.265625 0-7.5 3.066407-14.308594 8.011719-19.253907 4.933594-4.945312 11.753906-8.011718 19.253906-8.011718h209.449219c15 0 27.265625 12.265625 27.265625 27.265625zm0 0"/><path d="m419.71875 430.199219c0 6.65625-2.421875 12.777343-6.425781 17.523437-.5.605469-1.03125 1.179688-1.585938 1.734375-4.933593 4.941407-11.753906 8.007813-19.253906 8.007813h-209.460937c-14.988282 0-27.261719-12.277344-27.261719-27.265625 0-7.496094 3.066406-14.308594 8.007812-19.253907 4.945313-4.941406 11.757813-8.007812 19.253907-8.007812h209.460937c15 0 27.265625 12.265625 27.265625 27.261719zm0 0"/><path d="m458.144531 375.667969c0 6.667969-2.417969 12.777343-6.421875 17.523437-.503906.605469-1.035156 1.179688-1.585937 1.734375-4.933594 4.941407-11.757813 8.007813-19.253907 8.007813h-209.460937c-14.988281 0-27.265625-12.277344-27.265625-27.265625 0-7.496094 3.066406-14.320313 8.011719-19.253907 4.945312-4.941406 11.753906-8.007812 19.253906-8.007812h209.460937c14.996094 0 27.261719 12.265625 27.261719 27.261719zm0 0"/></g><path d="m430.882812 402.933594c8.417969 0 16.015626-3.914063 20.839844-9.738282-6.4375 0-187.339844 0-193.792968 0-14.988282 0-27.265626-12.269531-27.265626-27.265624 0-6.65625 2.421876-12.777344 6.425782-17.523438h17.523437c7.5 0 14.320313-3.085938 19.253907-8.050781 6.542968-6.574219 9.144531-15.746094 7.570312-24.230469-2.3125 12.753906-13.464844 22.519531-26.824219 22.519531h-172.953125c-14.988281 0-27.265625-12.339843-27.265625-27.402343 0-6.707032 2.429688-12.859376 6.457031-17.636719h-15.699218c-15 0-27.265625 12.339843-27.265625 27.402343 0 15.058594 12.277343 27.398438 27.265625 27.398438h38.4375c-7.5 0-14.3125 3.066406-19.253906 8.011719-17.164063 17.121093-4.890626 46.515625 19.253906 46.515625h99.398437c-22.953125 0-35.839843 27.050781-20.808593 44.820312h-80.53125c-14.988282 0-27.265626-12.277344-27.265626-27.265625 0-6.675781 2.429688-12.808593 6.457032-17.554687h-15.699219c-14.996094 0-27.261719 12.277344-27.261719 27.265625s12.273438 27.265625 27.261719 27.265625h32.042969c-15 0-27.265625 12.277344-27.265625 27.265625 0 14.996093 12.265625 27.261719 27.265625 27.261719h347.296875c8.347656 0 15.980469-3.867188 20.839843-9.738282-8.914062 0-186.535156 0-193.785156 0-22.988281 0-35.796875-27.0625-20.839844-44.789062h161.753907c8.40625 0 16.007812-3.902344 20.839843-9.742188-8.074218 0-185.792968 0-193.792968 0-22.953125 0-35.824219-27.03125-20.839844-44.789062zm-317.191406 99.351562c-15 0-27.265625-12.269531-27.265625-27.265625 0-6.675781 2.429688-12.808593 6.457031-17.554687h122.144532c-23.027344 0-35.792969 27.152344-20.804688 44.820312zm6.402344-109.058594c-15 0-27.265625-12.277343-27.265625-27.265624 0-6.675782 2.433594-12.808594 6.449219-17.554688h122.144531c-22.816406 0-35.9375 26.984375-20.804687 44.820312zm0 0" fill="#f0a70a"/></svg>