<svg id="Capa_1" enable-background="new 0 0 512 512" height="50" viewBox="0 0 512 512" width="50" xmlns="http://www.w3.org/2000/svg"><g fill="#ffda2d"><path d="m136 271h-121c-8.291 0-15-6.709-15-15s6.709-15 15-15h121c8.291 0 15 6.709 15 15s-6.709 15-15 15z"/><path d="m148.495 196h-103.495c-8.291 0-15-6.709-15-15v-75c0-8.291 6.709-15 15-15s15 6.709 15 15v60h88.495c8.291 0 15 6.709 15 15s-6.709 15-15 15z"/><path d="m45 421c-8.291 0-15-6.709-15-15v-75c0-8.291 6.709-15 15-15h91c8.291 0 15 6.709 15 15s-6.709 15-15 15h-76v60c0 8.291-6.709 15-15 15z"/><path d="m271 15v76c0 8.399-6.599 15-15 15s-15-6.601-15-15v-76c0-8.401 6.599-15 15-15s15 6.599 15 15z"/></g><path d="m316 106c-8.291 0-15-6.709-15-15v-76c0-8.291 6.709-15 15-15s15 6.709 15 15v76c0 8.291-6.709 15-15 15z" fill="#fdbf00"/><path d="m196 106c-8.291 0-15-6.709-15-15v-76c0-8.291 6.709-15 15-15s15 6.709 15 15v76c0 8.291-6.709 15-15 15z" fill="#ffda2d"/><path d="m256 106v-106c8.401 0 15 6.599 15 15v76c0 8.399-6.599 15-15 15z" fill="#fdbf00"/><path d="m467 421c-8.291 0-15-6.709-15-15v-60h-76c-8.291 0-15-6.709-15-15s6.709-15 15-15h91c8.291 0 15 6.709 15 15v75c0 8.291-6.709 15-15 15z" fill="#fdbf00"/><path d="m467 196h-100.844c-8.291 0-15-6.709-15-15s6.709-15 15-15h85.844v-60c0-8.291 6.709-15 15-15s15 6.709 15 15v75c0 8.291-6.709 15-15 15z" fill="#fdbf00"/><path d="m497 271h-121c-8.291 0-15-6.709-15-15s6.709-15 15-15h121c8.291 0 15 6.709 15 15s-6.709 15-15 15z" fill="#fdbf00"/><path d="m271 421v76c0 8.399-6.599 15-15 15s-15-6.601-15-15v-76c0-8.401 6.599-15 15-15s15 6.599 15 15z" fill="#ffda2d"/><path d="m196 512c-8.291 0-15-6.709-15-15v-76c0-8.291 6.709-15 15-15s15 6.709 15 15v76c0 8.291-6.709 15-15 15z" fill="#ffda2d"/><path d="m316 512c-8.291 0-15-6.709-15-15v-76c0-8.291 6.709-15 15-15s15 6.709 15 15v76c0 8.291-6.709 15-15 15z" fill="#fdbf00"/><path d="m271 421v76c0 8.399-6.599 15-15 15v-106c8.401 0 15 6.599 15 15z" fill="#fdbf00"/><path d="m391 91v105l-30 30h-210l-30-30v-105c0-8.401 6.599-15 15-15h240c8.401 0 15 6.599 15 15z" fill="#596c76"/><path d="m391 91v105l-30 30h-105v-150h120c8.401 0 15 6.599 15 15z" fill="#465a61"/><path d="m391 196v120l-30 30h-210l-30-30v-120z" fill="#465a61"/><path d="m391 196v120l-30 30h-105v-150z" fill="#3b4a51"/><path d="m391 316v105c0 8.399-6.599 15-15 15h-240c-8.401 0-15-6.601-15-15v-105z" fill="#596c76"/><path d="m256 316h135v105c0 8.399-6.599 15-15 15h-120z" fill="#465a61"/><circle cx="196" cy="256" fill="#a8ebfa" r="15"/><circle cx="196" cy="136" fill="#a8ebfa" r="15"/><circle cx="196" cy="376" fill="#a8ebfa" r="15"/><path d="m331 256c0 8.399-6.599 15-15 15h-60c-8.401 0-15-6.601-15-15 0-8.401 6.599-15 15-15h60c8.401 0 15 6.599 15 15z" fill="#3b4a51"/><path d="m331 136c0 8.399-6.599 15-15 15h-60c-8.401 0-15-6.601-15-15 0-8.401 6.599-15 15-15h60c8.401 0 15 6.599 15 15z" fill="#465a61"/><path d="m331 376c0 8.399-6.599 15-15 15h-60c-8.401 0-15-6.601-15-15 0-8.401 6.599-15 15-15h60c8.401 0 15 6.599 15 15z" fill="#465a61"/><path d="m467 121c-24.814 0-45-20.186-45-45s20.186-45 45-45 45 20.186 45 45-20.186 45-45 45z" fill="#76e2f8"/><path d="m467 482c-24.814 0-45-21.186-45-46s20.186-45 45-45 45 20.186 45 45-20.186 46-45 46z" fill="#76e2f8"/><path d="m45 121c-24.814 0-45-20.186-45-45s20.186-45 45-45 45 20.186 45 45-20.186 45-45 45z" fill="#a8ebfa"/><path d="m45 481c-24.814 0-45-20.186-45-45s20.186-45 45-45 45 20.186 45 45-20.186 45-45 45z" fill="#a8ebfa"/><path d="m331 376c0 8.399-6.599 15-15 15h-60v-30h60c8.401 0 15 6.599 15 15z" fill="#3b4a51"/><path d="m331 256c0 8.399-6.599 15-15 15h-60v-30h60c8.401 0 15 6.599 15 15z" fill="#32393f"/><path d="m316 151h-60v-30h60c8.401 0 15 6.599 15 15 0 8.399-6.599 15-15 15z" fill="#3b4a51"/></svg>