<svg height="50" viewBox="0 0 512 512" width="50" xmlns="http://www.w3.org/2000/svg"><path d="m391 256v195h-249.941406l-80.058594 61v-61h-61v-270h136l60 17.648438zm0 0" fill="#76e2f8"/><path d="m391 256v195h-195v-252.351562zm0 0" fill="#4bb9ec"/><path d="m91 361h210v30h-210zm0 0" fill="#e6ffff"/><path d="m91 301h210v30h-210zm0 0" fill="#e6ffff"/><path d="m136 256c0 8.285156-6.714844 15-15 15h-30v-30h45zm0 0" fill="#e6ffff"/><path d="m121 0v271h249.601562l80.398438 66.449219v-66.449219h61v-271zm0 0" fill="#fdbf00"/><path d="m512 0v271h-61v66.449219l-80.398438-66.449219h-54.601562v-271zm0 0" fill="#ff9100"/><path d="m361 106c0 16.761719-9.21875 32.03125-24.070312 39.839844-3.550782 1.871094-5.929688 6.679687-5.929688 11.980468h-30c0-13.570312 5.601562-25.878906 15-33.820312 2.128906-1.808594 4.460938-3.390625 6.960938-4.710938 4.960937-2.609374 8.039062-7.699218 8.039062-13.289062 0-8.289062-6.710938-15-15-15s-15 6.710938-15 15h-30c0-24.871094 20.128906-45 45-45s45 20.128906 45 45zm0 0" fill="#e6ffff"/><path d="m301 181h30v30h-30zm0 0" fill="#e6ffff"/><g fill="#d9f2ff"><path d="m316 181h15v30h-15zm0 0"/><path d="m361 106c0 16.761719-9.21875 32.03125-24.070312 39.839844-3.550782 1.871094-5.929688 6.679687-5.929688 11.980468h-15v-33.820312c2.128906-1.808594 4.460938-3.390625 6.960938-4.710938 4.960937-2.609374 8.039062-7.699218 8.039062-13.289062 0-8.289062-6.710938-15-15-15v-30c24.871094 0 45 20.128906 45 45zm0 0"/><path d="m196 301h105v30h-105zm0 0"/><path d="m196 361h105v30h-105zm0 0"/></g></svg>