<svg height="50" viewBox="0 -44 512.00001 512" width="50" xmlns="http://www.w3.org/2000/svg"><path d="m205.484375 355.09375h101.03125v55.863281h-101.03125zm0 0" fill="#2c6a9b"/><path d="m205.488281 355.09375h101.023438v17.386719h-101.023438zm0 0" fill="#1a5a84"/><path d="m354.214844 424.726562h-196.429688c-5.144531 0-9.316406-4.171874-9.316406-9.316406 0-5.144531 4.171875-9.3125 9.316406-9.3125h196.429688c5.144531 0 9.3125 4.167969 9.3125 9.3125 0 5.144532-4.167969 9.316406-9.3125 9.316406zm0 0" fill="#dceeef"/><path d="m512 15.761719v331.789062c0 5.8125-4.707031 10.507813-10.519531 10.507813h-490.960938c-5.8125 0-10.519531-4.695313-10.519531-10.503906v-331.792969c0-8.703125 7.066406-15.761719 15.773438-15.761719h480.453124c8.714844 0 15.773438 7.058594 15.773438 15.761719zm0 0" fill="#ff5d49"/><path d="m512 15.761719v331.789062c0 5.816407-4.707031 10.511719-10.511719 10.511719h-22.875c5.804688 0 10.511719-4.695312 10.511719-10.511719v-331.789062c0-8.699219-7.058594-15.75781275-15.769531-15.75781275h22.875c8.710937 0 15.769531 7.05859375 15.769531 15.75781275zm0 0" fill="#ea2e1f"/><path d="m.00390625 219.574219h511.99609375v88.074219h-511.99609375zm0 0" fill="#dceeef"/><path d="m489.125 219.574219h22.875v88.074219h-22.875zm0 0" fill="#bcdde2"/><path d="m512 307.648438v39.902343c0 5.816407-4.707031 10.511719-10.511719 10.511719h-490.976562c-5.804688 0-10.511719-4.695312-10.511719-10.511719v-39.902343zm0 0" fill="#3b7ca8"/><path d="m512 307.648438v39.902343c0 5.816407-4.707031 10.511719-10.511719 10.511719h-22.875c5.804688 0 10.511719-4.695312 10.511719-10.511719v-39.902343zm0 0" fill="#2c6a9b"/><path d="m473.355469 265.609375h-434.710938c-4.265625 0-7.726562-3.457031-7.726562-7.722656 0-4.269531 3.460937-7.726563 7.726562-7.726563h434.710938c4.265625 0 7.726562 3.457032 7.726562 7.726563 0 4.265625-3.460937 7.722656-7.726562 7.722656zm0 0" fill="#bcdde2"/><path d="m137.914062 257.886719c0 9.035156-7.328124 16.359375-16.363281 16.359375-9.035156 0-16.363281-7.324219-16.363281-16.359375 0-9.039063 7.328125-16.363281 16.363281-16.363281 9.035157 0 16.363281 7.324218 16.363281 16.363281zm0 0" fill="#ff5d49"/><g fill="#3b7ca8"><path d="m428.328125 289.019531c-4.265625 0-7.726563-3.460937-7.726563-7.726562v-.523438c0-4.265625 3.460938-7.722656 7.726563-7.722656 4.269531 0 7.726563 3.457031 7.726563 7.722656v.523438c0 4.265625-3.457032 7.726562-7.726563 7.726562zm0 0"/><path d="m449.058594 289.019531c-4.269532 0-7.726563-3.460937-7.726563-7.726562v-.523438c0-4.265625 3.457031-7.722656 7.726563-7.722656 4.265625 0 7.726562 3.457031 7.726562 7.722656v.523438c0 4.265625-3.460937 7.726562-7.726562 7.726562zm0 0"/><path d="m386.234375 289.019531c-4.265625 0-7.726563-3.460937-7.726563-7.726562v-.523438c0-4.265625 3.460938-7.722656 7.726563-7.722656s7.726563 3.457031 7.726563 7.722656v.523438c0 4.265625-3.460938 7.726562-7.726563 7.726562zm0 0"/><path d="m406.964844 289.019531c-4.269532 0-7.726563-3.460937-7.726563-7.726562v-.523438c0-4.265625 3.457031-7.722656 7.726563-7.722656 4.265625 0 7.722656 3.457031 7.722656 7.722656v.523438c0 4.265625-3.457031 7.726562-7.722656 7.726562zm0 0"/></g><path d="m316.148438 108.765625c0 33.21875-26.929688 60.144531-60.148438 60.144531s-60.148438-26.925781-60.148438-60.144531 26.929688-60.148437 60.148438-60.148437 60.148438 26.929687 60.148438 60.148437zm0 0" fill="#ea2e1f"/><path d="m233.335938 86.785156v43.957032c0 3.828124 4.023437 6.316406 7.445312 4.613281l44.140625-21.980469c3.804687-1.894531 3.804687-7.324219 0-9.222656l-44.140625-21.976563c-3.421875-1.707031-7.445312.785157-7.445312 4.609375zm0 0" fill="#dceeef"/></svg>